<mxfile host="65bd71144e">
    <diagram name="direct" id="yYmQQnW0B8JLXpHCuFqV">
        <mxGraphModel dx="479" dy="1002" grid="1" gridSize="10" guides="1" tooltips="1" connect="1" arrows="1" fold="1" page="1" pageScale="1" pageWidth="827" pageHeight="1169" background="#ffffff" math="0" shadow="0">
            <root>
                <mxCell id="mosRtDDEh_-8wz7YC8i8-0"/>
                <mxCell id="mosRtDDEh_-8wz7YC8i8-1" parent="mosRtDDEh_-8wz7YC8i8-0"/>
                <mxCell id="mosRtDDEh_-8wz7YC8i8-2" value="" style="rounded=1;whiteSpace=wrap;html=1;strokeColor=#000000;strokeWidth=1;fontColor=#000000;fillColor=none;align=center;verticalAlign=top;dashed=1;" parent="mosRtDDEh_-8wz7YC8i8-1" vertex="1">
                    <mxGeometry x="50" y="80" width="510" height="190" as="geometry"/>
                </mxCell>
                <mxCell id="mosRtDDEh_-8wz7YC8i8-3" value="&lt;b&gt;UDR&lt;/b&gt;" style="rounded=1;whiteSpace=wrap;html=1;strokeColor=#000000;strokeWidth=1;fontColor=#000000;fillColor=none;align=left;verticalAlign=top;" parent="mosRtDDEh_-8wz7YC8i8-1" vertex="1">
                    <mxGeometry x="170" y="100" width="78" height="32" as="geometry"/>
                </mxCell>
                <mxCell id="mosRtDDEh_-8wz7YC8i8-4" value="&lt;b&gt;UDM&lt;/b&gt;" style="rounded=1;whiteSpace=wrap;html=1;strokeColor=#000000;strokeWidth=1;fontColor=#000000;fillColor=none;align=left;verticalAlign=top;" parent="mosRtDDEh_-8wz7YC8i8-1" vertex="1">
                    <mxGeometry x="260" y="100" width="78" height="32" as="geometry"/>
                </mxCell>
                <mxCell id="mosRtDDEh_-8wz7YC8i8-5" value="&lt;b&gt;NRF&lt;/b&gt;" style="rounded=1;whiteSpace=wrap;html=1;strokeColor=#000000;strokeWidth=1;fontColor=#000000;fillColor=none;align=left;verticalAlign=top;" parent="mosRtDDEh_-8wz7YC8i8-1" vertex="1">
                    <mxGeometry x="441" y="100" width="78" height="32" as="geometry"/>
                </mxCell>
                <mxCell id="mosRtDDEh_-8wz7YC8i8-6" value="&lt;b&gt;AMF&lt;/b&gt;" style="rounded=1;whiteSpace=wrap;html=1;strokeColor=#000000;strokeWidth=1;fontColor=#000000;fillColor=none;align=left;verticalAlign=top;" parent="mosRtDDEh_-8wz7YC8i8-1" vertex="1">
                    <mxGeometry x="170" y="190" width="78" height="32" as="geometry"/>
                </mxCell>
                <mxCell id="mosRtDDEh_-8wz7YC8i8-7" value="&lt;b&gt;UPF&lt;/b&gt;" style="rounded=1;whiteSpace=wrap;html=1;strokeColor=#000000;strokeWidth=1;fontColor=#000000;fillColor=none;align=left;verticalAlign=top;" parent="mosRtDDEh_-8wz7YC8i8-1" vertex="1">
                    <mxGeometry x="350" y="190" width="78" height="32" as="geometry"/>
                </mxCell>
                <mxCell id="mosRtDDEh_-8wz7YC8i8-8" value="&lt;b&gt;SMF&lt;/b&gt;" style="rounded=1;whiteSpace=wrap;html=1;strokeColor=#000000;strokeWidth=1;fontColor=#000000;fillColor=none;align=left;verticalAlign=top;" parent="mosRtDDEh_-8wz7YC8i8-1" vertex="1">
                    <mxGeometry x="260" y="190" width="78" height="32" as="geometry"/>
                </mxCell>
                <mxCell id="mosRtDDEh_-8wz7YC8i8-9" value="&lt;b&gt;AUSF&lt;/b&gt;" style="rounded=1;whiteSpace=wrap;html=1;strokeColor=#000000;strokeWidth=1;fontColor=#000000;fillColor=none;align=left;verticalAlign=top;" parent="mosRtDDEh_-8wz7YC8i8-1" vertex="1">
                    <mxGeometry x="350" y="100" width="78" height="32" as="geometry"/>
                </mxCell>
                <mxCell id="mosRtDDEh_-8wz7YC8i8-10" value="&lt;b&gt;Database&lt;/b&gt;" style="rounded=1;whiteSpace=wrap;html=1;strokeColor=#000000;strokeWidth=1;fontColor=#000000;fillColor=none;align=left;verticalAlign=top;" parent="mosRtDDEh_-8wz7YC8i8-1" vertex="1">
                    <mxGeometry x="84" y="190" width="78" height="32" as="geometry"/>
                </mxCell>
                <mxCell id="mosRtDDEh_-8wz7YC8i8-11" value="" style="endArrow=none;html=1;fontColor=#000000;strokeWidth=4;strokeColor=#000000;" parent="mosRtDDEh_-8wz7YC8i8-1" edge="1">
                    <mxGeometry width="50" height="50" relative="1" as="geometry">
                        <mxPoint x="540" y="160" as="sourcePoint"/>
                        <mxPoint x="70" y="160" as="targetPoint"/>
                    </mxGeometry>
                </mxCell>
                <mxCell id="mosRtDDEh_-8wz7YC8i8-12" style="edgeStyle=none;html=1;strokeColor=#000000;strokeWidth=1;fontColor=#000000;endArrow=none;endFill=0;exitX=0.5;exitY=1;exitDx=0;exitDy=0;" parent="mosRtDDEh_-8wz7YC8i8-1" source="mosRtDDEh_-8wz7YC8i8-5" edge="1">
                    <mxGeometry relative="1" as="geometry">
                        <mxPoint x="480" y="160" as="targetPoint"/>
                        <mxPoint x="478.63" y="114" as="sourcePoint"/>
                    </mxGeometry>
                </mxCell>
                <mxCell id="mosRtDDEh_-8wz7YC8i8-13" style="edgeStyle=none;html=1;strokeColor=#000000;strokeWidth=1;fontColor=#000000;endArrow=none;endFill=0;exitX=0.5;exitY=1;exitDx=0;exitDy=0;" parent="mosRtDDEh_-8wz7YC8i8-1" source="mosRtDDEh_-8wz7YC8i8-9" edge="1">
                    <mxGeometry relative="1" as="geometry">
                        <mxPoint x="388.92" y="160" as="targetPoint"/>
                        <mxPoint x="388.92" y="132" as="sourcePoint"/>
                    </mxGeometry>
                </mxCell>
                <mxCell id="mosRtDDEh_-8wz7YC8i8-14" style="edgeStyle=none;html=1;strokeColor=#000000;strokeWidth=1;fontColor=#000000;endArrow=none;endFill=0;exitX=0.5;exitY=1;exitDx=0;exitDy=0;" parent="mosRtDDEh_-8wz7YC8i8-1" source="mosRtDDEh_-8wz7YC8i8-4" edge="1">
                    <mxGeometry relative="1" as="geometry">
                        <mxPoint x="298.92" y="160" as="targetPoint"/>
                        <mxPoint x="298.92" y="132" as="sourcePoint"/>
                    </mxGeometry>
                </mxCell>
                <mxCell id="mosRtDDEh_-8wz7YC8i8-15" style="edgeStyle=none;html=1;strokeColor=#000000;strokeWidth=1;fontColor=#000000;endArrow=none;endFill=0;exitX=0.5;exitY=1;exitDx=0;exitDy=0;" parent="mosRtDDEh_-8wz7YC8i8-1" source="mosRtDDEh_-8wz7YC8i8-3" edge="1">
                    <mxGeometry relative="1" as="geometry">
                        <mxPoint x="208.79000000000002" y="160" as="targetPoint"/>
                        <mxPoint x="208.79000000000002" y="132" as="sourcePoint"/>
                    </mxGeometry>
                </mxCell>
                <mxCell id="mosRtDDEh_-8wz7YC8i8-16" style="edgeStyle=none;html=1;strokeColor=#000000;strokeWidth=1;fontColor=#000000;endArrow=none;endFill=0;exitX=0.5;exitY=1;exitDx=0;exitDy=0;" parent="mosRtDDEh_-8wz7YC8i8-1" edge="1">
                    <mxGeometry relative="1" as="geometry">
                        <mxPoint x="390" y="190" as="targetPoint"/>
                        <mxPoint x="390" y="162" as="sourcePoint"/>
                    </mxGeometry>
                </mxCell>
                <mxCell id="mosRtDDEh_-8wz7YC8i8-17" style="edgeStyle=none;html=1;strokeColor=#000000;strokeWidth=1;fontColor=#000000;endArrow=none;endFill=0;exitX=0.5;exitY=1;exitDx=0;exitDy=0;" parent="mosRtDDEh_-8wz7YC8i8-1" edge="1">
                    <mxGeometry relative="1" as="geometry">
                        <mxPoint x="300" y="190" as="targetPoint"/>
                        <mxPoint x="300" y="162" as="sourcePoint"/>
                    </mxGeometry>
                </mxCell>
                <mxCell id="mosRtDDEh_-8wz7YC8i8-18" style="edgeStyle=none;html=1;strokeColor=#000000;strokeWidth=1;fontColor=#000000;endArrow=none;endFill=0;exitX=0.5;exitY=1;exitDx=0;exitDy=0;" parent="mosRtDDEh_-8wz7YC8i8-1" edge="1">
                    <mxGeometry relative="1" as="geometry">
                        <mxPoint x="210" y="190" as="targetPoint"/>
                        <mxPoint x="210" y="162" as="sourcePoint"/>
                    </mxGeometry>
                </mxCell>
                <mxCell id="mosRtDDEh_-8wz7YC8i8-19" style="edgeStyle=none;html=1;strokeColor=#000000;strokeWidth=1;fontColor=#000000;endArrow=none;endFill=0;exitX=0.5;exitY=1;exitDx=0;exitDy=0;" parent="mosRtDDEh_-8wz7YC8i8-1" edge="1">
                    <mxGeometry relative="1" as="geometry">
                        <mxPoint x="119.99999999999994" y="190" as="targetPoint"/>
                        <mxPoint x="119.99999999999994" y="162" as="sourcePoint"/>
                    </mxGeometry>
                </mxCell>
                <mxCell id="mosRtDDEh_-8wz7YC8i8-20" value="&lt;b&gt;gNB&lt;/b&gt;" style="rounded=1;whiteSpace=wrap;html=1;strokeColor=#000000;strokeWidth=1;fontColor=#000000;fillColor=none;align=left;verticalAlign=top;" parent="mosRtDDEh_-8wz7YC8i8-1" vertex="1">
                    <mxGeometry x="269" y="430" width="78" height="32" as="geometry"/>
                </mxCell>
                <mxCell id="mosRtDDEh_-8wz7YC8i8-22" value="&lt;b&gt;UE&lt;/b&gt;" style="rounded=1;whiteSpace=wrap;html=1;strokeColor=#000000;strokeWidth=1;fontColor=#000000;fillColor=none;align=left;verticalAlign=top;" parent="mosRtDDEh_-8wz7YC8i8-1" vertex="1">
                    <mxGeometry x="269" y="480" width="78" height="32" as="geometry"/>
                </mxCell>
                <mxCell id="mosRtDDEh_-8wz7YC8i8-23" style="edgeStyle=none;html=1;strokeColor=#000000;strokeWidth=1;fontColor=#000000;endArrow=none;endFill=0;exitX=0.5;exitY=1;exitDx=0;exitDy=0;entryX=0.5;entryY=0;entryDx=0;entryDy=0;dashed=1;" parent="mosRtDDEh_-8wz7YC8i8-1" source="mosRtDDEh_-8wz7YC8i8-20" target="mosRtDDEh_-8wz7YC8i8-22" edge="1">
                    <mxGeometry relative="1" as="geometry">
                        <mxPoint x="319" y="190" as="targetPoint"/>
                        <mxPoint x="319" y="162" as="sourcePoint"/>
                    </mxGeometry>
                </mxCell>
                <mxCell id="iesT5swXKxVE6_5UAxt5-24" style="edgeStyle=none;html=1;strokeColor=#001DBC;strokeWidth=1;fontColor=#000000;endArrow=none;endFill=0;fillColor=#0050ef;exitX=0.5;exitY=1;exitDx=0;exitDy=0;" parent="mosRtDDEh_-8wz7YC8i8-1" source="mosRtDDEh_-8wz7YC8i8-6" edge="1">
                    <mxGeometry relative="1" as="geometry">
                        <mxPoint x="210" y="250" as="targetPoint"/>
                        <mxPoint x="220" y="232" as="sourcePoint"/>
                    </mxGeometry>
                </mxCell>
                <mxCell id="iesT5swXKxVE6_5UAxt5-25" style="edgeStyle=none;html=1;strokeColor=#001DBC;strokeWidth=1;fontColor=#000000;endArrow=none;endFill=0;fillColor=#0050ef;exitX=0.5;exitY=1;exitDx=0;exitDy=0;" parent="mosRtDDEh_-8wz7YC8i8-1" source="mosRtDDEh_-8wz7YC8i8-7" edge="1">
                    <mxGeometry relative="1" as="geometry">
                        <mxPoint x="389" y="250" as="targetPoint"/>
                        <mxPoint x="388.71" y="222" as="sourcePoint"/>
                    </mxGeometry>
                </mxCell>
                <mxCell id="iesT5swXKxVE6_5UAxt5-27" value="" style="rounded=1;whiteSpace=wrap;html=1;strokeColor=#000000;strokeWidth=1;fontColor=#000000;fillColor=none;align=center;verticalAlign=top;dashed=1;" parent="mosRtDDEh_-8wz7YC8i8-1" vertex="1">
                    <mxGeometry x="239" y="390" width="140" height="140" as="geometry"/>
                </mxCell>
                <mxCell id="iesT5swXKxVE6_5UAxt5-30" style="edgeStyle=none;html=1;strokeColor=#005700;strokeWidth=1;fontColor=#000000;endArrow=none;endFill=0;fillColor=#008a00;" parent="mosRtDDEh_-8wz7YC8i8-1" edge="1">
                    <mxGeometry relative="1" as="geometry">
                        <mxPoint x="309" y="430" as="targetPoint"/>
                        <mxPoint x="309" y="410" as="sourcePoint"/>
                    </mxGeometry>
                </mxCell>
                <mxCell id="iesT5swXKxVE6_5UAxt5-34" style="edgeStyle=none;html=1;strokeColor=#808080;strokeWidth=1;fontColor=#000000;endArrow=none;endFill=0;fillColor=#a20025;" parent="mosRtDDEh_-8wz7YC8i8-1" edge="1">
                    <mxGeometry relative="1" as="geometry">
                        <mxPoint x="314" y="410" as="targetPoint"/>
                        <mxPoint x="314" y="250" as="sourcePoint"/>
                    </mxGeometry>
                </mxCell>
                <mxCell id="iesT5swXKxVE6_5UAxt5-23" value="" style="endArrow=none;html=1;fontColor=#000000;strokeWidth=4;strokeColor=#001DBC;fillColor=#0050ef;" parent="mosRtDDEh_-8wz7YC8i8-1" edge="1">
                    <mxGeometry width="50" height="50" relative="1" as="geometry">
                        <mxPoint x="420" y="250" as="sourcePoint"/>
                        <mxPoint x="170" y="250" as="targetPoint"/>
                    </mxGeometry>
                </mxCell>
                <mxCell id="iesT5swXKxVE6_5UAxt5-29" value="" style="endArrow=none;html=1;fontColor=#000000;strokeWidth=4;strokeColor=#005700;fillColor=#008a00;" parent="mosRtDDEh_-8wz7YC8i8-1" edge="1">
                    <mxGeometry width="50" height="50" relative="1" as="geometry">
                        <mxPoint x="369" y="410" as="sourcePoint"/>
                        <mxPoint x="247" y="410" as="targetPoint"/>
                    </mxGeometry>
                </mxCell>
            </root>
        </mxGraphModel>
    </diagram>
    <diagram name="Internet" id="95aROgX2rxeE1p1zVrsC">
        <mxGraphModel dx="904" dy="1002" grid="1" gridSize="10" guides="1" tooltips="1" connect="1" arrows="1" fold="1" page="1" pageScale="1" pageWidth="827" pageHeight="1169" background="#ffffff" math="0" shadow="0">
            <root>
                <mxCell id="d_ESzk3C_-_KSTiCJXrD-0"/>
                <mxCell id="d_ESzk3C_-_KSTiCJXrD-1" parent="d_ESzk3C_-_KSTiCJXrD-0"/>
                <mxCell id="mZY6FFrSZO1lQZKtr8bz-4" value="&lt;br&gt;VPN Service" style="rounded=1;whiteSpace=wrap;html=1;strokeWidth=1;align=center;verticalAlign=top;dashed=1;fontStyle=1" vertex="1" parent="d_ESzk3C_-_KSTiCJXrD-1">
                    <mxGeometry x="600" y="280" width="140" height="60" as="geometry"/>
                </mxCell>
                <mxCell id="d_ESzk3C_-_KSTiCJXrD-2" value="" style="rounded=1;whiteSpace=wrap;html=1;strokeColor=#000000;strokeWidth=1;fontColor=#000000;fillColor=none;align=center;verticalAlign=top;dashed=1;" vertex="1" parent="d_ESzk3C_-_KSTiCJXrD-1">
                    <mxGeometry x="50" y="80" width="510" height="190" as="geometry"/>
                </mxCell>
                <mxCell id="d_ESzk3C_-_KSTiCJXrD-3" value="&lt;b&gt;UDR&lt;/b&gt;" style="rounded=1;whiteSpace=wrap;html=1;strokeColor=#000000;strokeWidth=1;fontColor=#000000;fillColor=none;align=left;verticalAlign=top;" vertex="1" parent="d_ESzk3C_-_KSTiCJXrD-1">
                    <mxGeometry x="170" y="100" width="78" height="32" as="geometry"/>
                </mxCell>
                <mxCell id="d_ESzk3C_-_KSTiCJXrD-4" value="&lt;b&gt;UDM&lt;/b&gt;" style="rounded=1;whiteSpace=wrap;html=1;strokeColor=#000000;strokeWidth=1;fontColor=#000000;fillColor=none;align=left;verticalAlign=top;" vertex="1" parent="d_ESzk3C_-_KSTiCJXrD-1">
                    <mxGeometry x="260" y="100" width="78" height="32" as="geometry"/>
                </mxCell>
                <mxCell id="d_ESzk3C_-_KSTiCJXrD-5" value="&lt;b&gt;NRF&lt;/b&gt;" style="rounded=1;whiteSpace=wrap;html=1;strokeColor=#000000;strokeWidth=1;fontColor=#000000;fillColor=none;align=left;verticalAlign=top;" vertex="1" parent="d_ESzk3C_-_KSTiCJXrD-1">
                    <mxGeometry x="441" y="100" width="78" height="32" as="geometry"/>
                </mxCell>
                <mxCell id="d_ESzk3C_-_KSTiCJXrD-6" value="&lt;b&gt;AMF&lt;/b&gt;" style="rounded=1;whiteSpace=wrap;html=1;strokeColor=#000000;strokeWidth=1;fontColor=#000000;fillColor=none;align=left;verticalAlign=top;" vertex="1" parent="d_ESzk3C_-_KSTiCJXrD-1">
                    <mxGeometry x="170" y="190" width="78" height="32" as="geometry"/>
                </mxCell>
                <mxCell id="d_ESzk3C_-_KSTiCJXrD-7" value="&lt;b&gt;UPF&lt;/b&gt;" style="rounded=1;whiteSpace=wrap;html=1;strokeColor=#000000;strokeWidth=1;fontColor=#000000;fillColor=none;align=left;verticalAlign=top;" vertex="1" parent="d_ESzk3C_-_KSTiCJXrD-1">
                    <mxGeometry x="350" y="190" width="78" height="32" as="geometry"/>
                </mxCell>
                <mxCell id="d_ESzk3C_-_KSTiCJXrD-8" value="&lt;b&gt;SMF&lt;/b&gt;" style="rounded=1;whiteSpace=wrap;html=1;strokeColor=#000000;strokeWidth=1;fontColor=#000000;fillColor=none;align=left;verticalAlign=top;" vertex="1" parent="d_ESzk3C_-_KSTiCJXrD-1">
                    <mxGeometry x="260" y="190" width="78" height="32" as="geometry"/>
                </mxCell>
                <mxCell id="d_ESzk3C_-_KSTiCJXrD-9" value="&lt;b&gt;AUSF&lt;/b&gt;" style="rounded=1;whiteSpace=wrap;html=1;strokeColor=#000000;strokeWidth=1;fontColor=#000000;fillColor=none;align=left;verticalAlign=top;" vertex="1" parent="d_ESzk3C_-_KSTiCJXrD-1">
                    <mxGeometry x="350" y="100" width="78" height="32" as="geometry"/>
                </mxCell>
                <mxCell id="d_ESzk3C_-_KSTiCJXrD-10" value="&lt;b&gt;Database&lt;/b&gt;" style="rounded=1;whiteSpace=wrap;html=1;strokeColor=#000000;strokeWidth=1;fontColor=#000000;fillColor=none;align=left;verticalAlign=top;" vertex="1" parent="d_ESzk3C_-_KSTiCJXrD-1">
                    <mxGeometry x="84" y="190" width="78" height="32" as="geometry"/>
                </mxCell>
                <mxCell id="d_ESzk3C_-_KSTiCJXrD-11" value="" style="endArrow=none;html=1;fontColor=#000000;strokeWidth=4;strokeColor=#000000;" edge="1" parent="d_ESzk3C_-_KSTiCJXrD-1">
                    <mxGeometry width="50" height="50" relative="1" as="geometry">
                        <mxPoint x="540" y="160" as="sourcePoint"/>
                        <mxPoint x="70" y="160" as="targetPoint"/>
                    </mxGeometry>
                </mxCell>
                <mxCell id="d_ESzk3C_-_KSTiCJXrD-12" style="edgeStyle=none;html=1;strokeColor=#000000;strokeWidth=1;fontColor=#000000;endArrow=none;endFill=0;exitX=0.5;exitY=1;exitDx=0;exitDy=0;" edge="1" parent="d_ESzk3C_-_KSTiCJXrD-1" source="d_ESzk3C_-_KSTiCJXrD-5">
                    <mxGeometry relative="1" as="geometry">
                        <mxPoint x="480" y="160" as="targetPoint"/>
                        <mxPoint x="478.63" y="114" as="sourcePoint"/>
                    </mxGeometry>
                </mxCell>
                <mxCell id="d_ESzk3C_-_KSTiCJXrD-13" style="edgeStyle=none;html=1;strokeColor=#000000;strokeWidth=1;fontColor=#000000;endArrow=none;endFill=0;exitX=0.5;exitY=1;exitDx=0;exitDy=0;" edge="1" parent="d_ESzk3C_-_KSTiCJXrD-1" source="d_ESzk3C_-_KSTiCJXrD-9">
                    <mxGeometry relative="1" as="geometry">
                        <mxPoint x="388.92" y="160" as="targetPoint"/>
                        <mxPoint x="388.92" y="132" as="sourcePoint"/>
                    </mxGeometry>
                </mxCell>
                <mxCell id="d_ESzk3C_-_KSTiCJXrD-14" style="edgeStyle=none;html=1;strokeColor=#000000;strokeWidth=1;fontColor=#000000;endArrow=none;endFill=0;exitX=0.5;exitY=1;exitDx=0;exitDy=0;" edge="1" parent="d_ESzk3C_-_KSTiCJXrD-1" source="d_ESzk3C_-_KSTiCJXrD-4">
                    <mxGeometry relative="1" as="geometry">
                        <mxPoint x="298.92" y="160" as="targetPoint"/>
                        <mxPoint x="298.92" y="132" as="sourcePoint"/>
                    </mxGeometry>
                </mxCell>
                <mxCell id="d_ESzk3C_-_KSTiCJXrD-15" style="edgeStyle=none;html=1;strokeColor=#000000;strokeWidth=1;fontColor=#000000;endArrow=none;endFill=0;exitX=0.5;exitY=1;exitDx=0;exitDy=0;" edge="1" parent="d_ESzk3C_-_KSTiCJXrD-1" source="d_ESzk3C_-_KSTiCJXrD-3">
                    <mxGeometry relative="1" as="geometry">
                        <mxPoint x="208.79000000000002" y="160" as="targetPoint"/>
                        <mxPoint x="208.79000000000002" y="132" as="sourcePoint"/>
                    </mxGeometry>
                </mxCell>
                <mxCell id="d_ESzk3C_-_KSTiCJXrD-16" style="edgeStyle=none;html=1;strokeColor=#000000;strokeWidth=1;fontColor=#000000;endArrow=none;endFill=0;exitX=0.5;exitY=1;exitDx=0;exitDy=0;" edge="1" parent="d_ESzk3C_-_KSTiCJXrD-1">
                    <mxGeometry relative="1" as="geometry">
                        <mxPoint x="390" y="190" as="targetPoint"/>
                        <mxPoint x="390" y="162" as="sourcePoint"/>
                    </mxGeometry>
                </mxCell>
                <mxCell id="d_ESzk3C_-_KSTiCJXrD-17" style="edgeStyle=none;html=1;strokeColor=#000000;strokeWidth=1;fontColor=#000000;endArrow=none;endFill=0;exitX=0.5;exitY=1;exitDx=0;exitDy=0;" edge="1" parent="d_ESzk3C_-_KSTiCJXrD-1">
                    <mxGeometry relative="1" as="geometry">
                        <mxPoint x="300" y="190" as="targetPoint"/>
                        <mxPoint x="300" y="162" as="sourcePoint"/>
                    </mxGeometry>
                </mxCell>
                <mxCell id="d_ESzk3C_-_KSTiCJXrD-18" style="edgeStyle=none;html=1;strokeColor=#000000;strokeWidth=1;fontColor=#000000;endArrow=none;endFill=0;exitX=0.5;exitY=1;exitDx=0;exitDy=0;" edge="1" parent="d_ESzk3C_-_KSTiCJXrD-1">
                    <mxGeometry relative="1" as="geometry">
                        <mxPoint x="210" y="190" as="targetPoint"/>
                        <mxPoint x="210" y="162" as="sourcePoint"/>
                    </mxGeometry>
                </mxCell>
                <mxCell id="d_ESzk3C_-_KSTiCJXrD-19" style="edgeStyle=none;html=1;strokeColor=#000000;strokeWidth=1;fontColor=#000000;endArrow=none;endFill=0;exitX=0.5;exitY=1;exitDx=0;exitDy=0;" edge="1" parent="d_ESzk3C_-_KSTiCJXrD-1">
                    <mxGeometry relative="1" as="geometry">
                        <mxPoint x="119.99999999999994" y="190" as="targetPoint"/>
                        <mxPoint x="119.99999999999994" y="162" as="sourcePoint"/>
                    </mxGeometry>
                </mxCell>
                <mxCell id="d_ESzk3C_-_KSTiCJXrD-20" value="&lt;b&gt;gNB&lt;/b&gt;" style="rounded=1;whiteSpace=wrap;html=1;strokeColor=#000000;strokeWidth=1;fontColor=#000000;fillColor=none;align=left;verticalAlign=top;" vertex="1" parent="d_ESzk3C_-_KSTiCJXrD-1">
                    <mxGeometry x="400" y="530" width="78" height="32" as="geometry"/>
                </mxCell>
                <mxCell id="d_ESzk3C_-_KSTiCJXrD-21" value="&lt;b&gt;UE&lt;/b&gt;" style="rounded=1;whiteSpace=wrap;html=1;strokeColor=#000000;strokeWidth=1;fontColor=#000000;fillColor=none;align=left;verticalAlign=top;" vertex="1" parent="d_ESzk3C_-_KSTiCJXrD-1">
                    <mxGeometry x="400" y="580" width="78" height="32" as="geometry"/>
                </mxCell>
                <mxCell id="d_ESzk3C_-_KSTiCJXrD-22" style="edgeStyle=none;html=1;strokeColor=#000000;strokeWidth=1;fontColor=#000000;endArrow=none;endFill=0;exitX=0.5;exitY=1;exitDx=0;exitDy=0;entryX=0.5;entryY=0;entryDx=0;entryDy=0;dashed=1;" edge="1" parent="d_ESzk3C_-_KSTiCJXrD-1" source="d_ESzk3C_-_KSTiCJXrD-20" target="d_ESzk3C_-_KSTiCJXrD-21">
                    <mxGeometry relative="1" as="geometry">
                        <mxPoint x="450" y="290" as="targetPoint"/>
                        <mxPoint x="450" y="262" as="sourcePoint"/>
                    </mxGeometry>
                </mxCell>
                <mxCell id="d_ESzk3C_-_KSTiCJXrD-23" style="edgeStyle=none;html=1;strokeColor=#001DBC;strokeWidth=1;fontColor=#000000;endArrow=none;endFill=0;fillColor=#0050ef;exitX=0.5;exitY=1;exitDx=0;exitDy=0;" edge="1" parent="d_ESzk3C_-_KSTiCJXrD-1" source="d_ESzk3C_-_KSTiCJXrD-6">
                    <mxGeometry relative="1" as="geometry">
                        <mxPoint x="210" y="250" as="targetPoint"/>
                        <mxPoint x="220" y="232" as="sourcePoint"/>
                    </mxGeometry>
                </mxCell>
                <mxCell id="d_ESzk3C_-_KSTiCJXrD-24" style="edgeStyle=none;html=1;strokeColor=#001DBC;strokeWidth=1;fontColor=#000000;endArrow=none;endFill=0;fillColor=#0050ef;exitX=0.5;exitY=1;exitDx=0;exitDy=0;" edge="1" parent="d_ESzk3C_-_KSTiCJXrD-1" source="d_ESzk3C_-_KSTiCJXrD-7">
                    <mxGeometry relative="1" as="geometry">
                        <mxPoint x="389" y="250" as="targetPoint"/>
                        <mxPoint x="388.71" y="222" as="sourcePoint"/>
                    </mxGeometry>
                </mxCell>
                <mxCell id="d_ESzk3C_-_KSTiCJXrD-25" value="" style="rounded=1;whiteSpace=wrap;html=1;strokeColor=#000000;strokeWidth=1;fontColor=#000000;fillColor=none;align=center;verticalAlign=top;dashed=1;" vertex="1" parent="d_ESzk3C_-_KSTiCJXrD-1">
                    <mxGeometry x="370" y="490" width="140" height="140" as="geometry"/>
                </mxCell>
                <mxCell id="d_ESzk3C_-_KSTiCJXrD-26" style="edgeStyle=none;html=1;strokeColor=#005700;strokeWidth=1;fontColor=#000000;endArrow=none;endFill=0;fillColor=#008a00;" edge="1" parent="d_ESzk3C_-_KSTiCJXrD-1">
                    <mxGeometry relative="1" as="geometry">
                        <mxPoint x="440" y="530" as="targetPoint"/>
                        <mxPoint x="440" y="510" as="sourcePoint"/>
                    </mxGeometry>
                </mxCell>
                <mxCell id="d_ESzk3C_-_KSTiCJXrD-28" value="" style="endArrow=none;html=1;fontColor=#000000;strokeWidth=4;strokeColor=#001DBC;fillColor=#0050ef;" edge="1" parent="d_ESzk3C_-_KSTiCJXrD-1">
                    <mxGeometry width="50" height="50" relative="1" as="geometry">
                        <mxPoint x="420" y="250" as="sourcePoint"/>
                        <mxPoint x="170" y="250" as="targetPoint"/>
                    </mxGeometry>
                </mxCell>
                <mxCell id="d_ESzk3C_-_KSTiCJXrD-29" value="" style="endArrow=none;html=1;fontColor=#000000;strokeWidth=4;strokeColor=#005700;fillColor=#008a00;" edge="1" parent="d_ESzk3C_-_KSTiCJXrD-1">
                    <mxGeometry width="50" height="50" relative="1" as="geometry">
                        <mxPoint x="500" y="510" as="sourcePoint"/>
                        <mxPoint x="378" y="510" as="targetPoint"/>
                    </mxGeometry>
                </mxCell>
                <mxCell id="mZY6FFrSZO1lQZKtr8bz-0" value="&lt;b&gt;&lt;font color=&quot;#000000&quot; style=&quot;font-size: 13px;&quot;&gt;Internet&lt;/font&gt;&lt;/b&gt;" style="ellipse;shape=cloud;whiteSpace=wrap;html=1;fillColor=#FFFFFF;strokeColor=#000000;" vertex="1" parent="d_ESzk3C_-_KSTiCJXrD-1">
                    <mxGeometry x="320" y="270" width="260" height="180" as="geometry"/>
                </mxCell>
                <mxCell id="mZY6FFrSZO1lQZKtr8bz-8" value="" style="endArrow=none;html=1;strokeColor=#000000;fontSize=13;fontColor=#000000;curved=1;strokeWidth=8;entryX=0.5;entryY=1;entryDx=0;entryDy=0;" edge="1" parent="d_ESzk3C_-_KSTiCJXrD-1" source="mZY6FFrSZO1lQZKtr8bz-4" target="d_ESzk3C_-_KSTiCJXrD-2">
                    <mxGeometry width="50" height="50" relative="1" as="geometry">
                        <mxPoint x="400" y="530" as="sourcePoint"/>
                        <mxPoint x="310" y="250" as="targetPoint"/>
                        <Array as="points">
                            <mxPoint x="400" y="350"/>
                        </Array>
                    </mxGeometry>
                </mxCell>
                <mxCell id="mZY6FFrSZO1lQZKtr8bz-9" value="" style="endArrow=none;html=1;strokeColor=#000000;fontSize=13;fontColor=#000000;curved=1;strokeWidth=8;entryX=0.5;entryY=0;entryDx=0;entryDy=0;" edge="1" parent="d_ESzk3C_-_KSTiCJXrD-1" target="d_ESzk3C_-_KSTiCJXrD-25">
                    <mxGeometry width="50" height="50" relative="1" as="geometry">
                        <mxPoint x="610" y="326.36363636363626" as="sourcePoint"/>
                        <mxPoint x="320" y="259.9999999999999" as="targetPoint"/>
                        <Array as="points">
                            <mxPoint x="480" y="370"/>
                        </Array>
                    </mxGeometry>
                </mxCell>
                <mxCell id="mZY6FFrSZO1lQZKtr8bz-10" value="" style="endArrow=none;html=1;strokeColor=#FF0000;fontSize=13;fontColor=#000000;curved=1;strokeWidth=2;dashed=1;fillColor=#008a00;" edge="1" parent="d_ESzk3C_-_KSTiCJXrD-1">
                    <mxGeometry width="50" height="50" relative="1" as="geometry">
                        <mxPoint x="440" y="520" as="sourcePoint"/>
                        <mxPoint x="290" y="250" as="targetPoint"/>
                        <Array as="points">
                            <mxPoint x="470" y="390"/>
                            <mxPoint x="660" y="310"/>
                            <mxPoint x="500" y="330"/>
                            <mxPoint x="340" y="310"/>
                        </Array>
                    </mxGeometry>
                </mxCell>
            </root>
        </mxGraphModel>
    </diagram>
    <diagram name="nren" id="ksVPEhatfZiANYX41QV0">
        <mxGraphModel dx="854" dy="1002" grid="1" gridSize="10" guides="1" tooltips="1" connect="1" arrows="1" fold="1" page="1" pageScale="1" pageWidth="827" pageHeight="1169" background="#ffffff" math="0" shadow="0">
            <root>
                <mxCell id="4_1HTsBBXWPBzoWa0NGx-0"/>
                <mxCell id="4_1HTsBBXWPBzoWa0NGx-1" parent="4_1HTsBBXWPBzoWa0NGx-0"/>
                <mxCell id="4_1HTsBBXWPBzoWa0NGx-3" value="" style="rounded=1;whiteSpace=wrap;html=1;strokeColor=#000000;strokeWidth=1;fontColor=#000000;fillColor=none;align=center;verticalAlign=top;dashed=1;" parent="4_1HTsBBXWPBzoWa0NGx-1" vertex="1">
                    <mxGeometry x="90" y="10" width="510" height="190" as="geometry"/>
                </mxCell>
                <mxCell id="4_1HTsBBXWPBzoWa0NGx-4" value="&lt;b&gt;UDR&lt;/b&gt;" style="rounded=1;whiteSpace=wrap;html=1;strokeColor=#000000;strokeWidth=1;fontColor=#000000;fillColor=none;align=left;verticalAlign=top;" parent="4_1HTsBBXWPBzoWa0NGx-1" vertex="1">
                    <mxGeometry x="210" y="30" width="78" height="32" as="geometry"/>
                </mxCell>
                <mxCell id="4_1HTsBBXWPBzoWa0NGx-5" value="&lt;b&gt;UDM&lt;/b&gt;" style="rounded=1;whiteSpace=wrap;html=1;strokeColor=#000000;strokeWidth=1;fontColor=#000000;fillColor=none;align=left;verticalAlign=top;" parent="4_1HTsBBXWPBzoWa0NGx-1" vertex="1">
                    <mxGeometry x="300" y="30" width="78" height="32" as="geometry"/>
                </mxCell>
                <mxCell id="4_1HTsBBXWPBzoWa0NGx-6" value="&lt;b&gt;NRF&lt;/b&gt;" style="rounded=1;whiteSpace=wrap;html=1;strokeColor=#000000;strokeWidth=1;fontColor=#000000;fillColor=none;align=left;verticalAlign=top;" parent="4_1HTsBBXWPBzoWa0NGx-1" vertex="1">
                    <mxGeometry x="481" y="30" width="78" height="32" as="geometry"/>
                </mxCell>
                <mxCell id="4_1HTsBBXWPBzoWa0NGx-7" value="&lt;b&gt;AMF&lt;/b&gt;" style="rounded=1;whiteSpace=wrap;html=1;strokeColor=#000000;strokeWidth=1;fontColor=#000000;fillColor=none;align=left;verticalAlign=top;" parent="4_1HTsBBXWPBzoWa0NGx-1" vertex="1">
                    <mxGeometry x="210" y="120" width="78" height="32" as="geometry"/>
                </mxCell>
                <mxCell id="4_1HTsBBXWPBzoWa0NGx-8" value="&lt;b&gt;UPF&lt;/b&gt;" style="rounded=1;whiteSpace=wrap;html=1;strokeColor=#000000;strokeWidth=1;fontColor=#000000;fillColor=none;align=left;verticalAlign=top;" parent="4_1HTsBBXWPBzoWa0NGx-1" vertex="1">
                    <mxGeometry x="390" y="120" width="78" height="32" as="geometry"/>
                </mxCell>
                <mxCell id="4_1HTsBBXWPBzoWa0NGx-9" value="&lt;b&gt;SMF&lt;/b&gt;" style="rounded=1;whiteSpace=wrap;html=1;strokeColor=#000000;strokeWidth=1;fontColor=#000000;fillColor=none;align=left;verticalAlign=top;" parent="4_1HTsBBXWPBzoWa0NGx-1" vertex="1">
                    <mxGeometry x="300" y="120" width="78" height="32" as="geometry"/>
                </mxCell>
                <mxCell id="4_1HTsBBXWPBzoWa0NGx-10" value="&lt;b&gt;AUSF&lt;/b&gt;" style="rounded=1;whiteSpace=wrap;html=1;strokeColor=#000000;strokeWidth=1;fontColor=#000000;fillColor=none;align=left;verticalAlign=top;" parent="4_1HTsBBXWPBzoWa0NGx-1" vertex="1">
                    <mxGeometry x="390" y="30" width="78" height="32" as="geometry"/>
                </mxCell>
                <mxCell id="4_1HTsBBXWPBzoWa0NGx-11" value="&lt;b&gt;Database&lt;/b&gt;" style="rounded=1;whiteSpace=wrap;html=1;strokeColor=#000000;strokeWidth=1;fontColor=#000000;fillColor=none;align=left;verticalAlign=top;" parent="4_1HTsBBXWPBzoWa0NGx-1" vertex="1">
                    <mxGeometry x="124" y="120" width="78" height="32" as="geometry"/>
                </mxCell>
                <mxCell id="4_1HTsBBXWPBzoWa0NGx-12" value="" style="endArrow=none;html=1;fontColor=#000000;strokeWidth=4;strokeColor=#000000;" parent="4_1HTsBBXWPBzoWa0NGx-1" edge="1">
                    <mxGeometry width="50" height="50" relative="1" as="geometry">
                        <mxPoint x="580" y="90" as="sourcePoint"/>
                        <mxPoint x="110" y="90" as="targetPoint"/>
                    </mxGeometry>
                </mxCell>
                <mxCell id="4_1HTsBBXWPBzoWa0NGx-13" style="edgeStyle=none;html=1;strokeColor=#000000;strokeWidth=1;fontColor=#000000;endArrow=none;endFill=0;exitX=0.5;exitY=1;exitDx=0;exitDy=0;" parent="4_1HTsBBXWPBzoWa0NGx-1" source="4_1HTsBBXWPBzoWa0NGx-6" edge="1">
                    <mxGeometry relative="1" as="geometry">
                        <mxPoint x="520" y="90" as="targetPoint"/>
                        <mxPoint x="518.63" y="44" as="sourcePoint"/>
                    </mxGeometry>
                </mxCell>
                <mxCell id="4_1HTsBBXWPBzoWa0NGx-14" style="edgeStyle=none;html=1;strokeColor=#000000;strokeWidth=1;fontColor=#000000;endArrow=none;endFill=0;exitX=0.5;exitY=1;exitDx=0;exitDy=0;" parent="4_1HTsBBXWPBzoWa0NGx-1" source="4_1HTsBBXWPBzoWa0NGx-10" edge="1">
                    <mxGeometry relative="1" as="geometry">
                        <mxPoint x="428.92" y="90" as="targetPoint"/>
                        <mxPoint x="428.92" y="62" as="sourcePoint"/>
                    </mxGeometry>
                </mxCell>
                <mxCell id="4_1HTsBBXWPBzoWa0NGx-15" style="edgeStyle=none;html=1;strokeColor=#000000;strokeWidth=1;fontColor=#000000;endArrow=none;endFill=0;exitX=0.5;exitY=1;exitDx=0;exitDy=0;" parent="4_1HTsBBXWPBzoWa0NGx-1" source="4_1HTsBBXWPBzoWa0NGx-5" edge="1">
                    <mxGeometry relative="1" as="geometry">
                        <mxPoint x="338.92" y="90" as="targetPoint"/>
                        <mxPoint x="338.92" y="62" as="sourcePoint"/>
                    </mxGeometry>
                </mxCell>
                <mxCell id="4_1HTsBBXWPBzoWa0NGx-16" style="edgeStyle=none;html=1;strokeColor=#000000;strokeWidth=1;fontColor=#000000;endArrow=none;endFill=0;exitX=0.5;exitY=1;exitDx=0;exitDy=0;" parent="4_1HTsBBXWPBzoWa0NGx-1" source="4_1HTsBBXWPBzoWa0NGx-4" edge="1">
                    <mxGeometry relative="1" as="geometry">
                        <mxPoint x="248.79000000000002" y="90" as="targetPoint"/>
                        <mxPoint x="248.79000000000002" y="62" as="sourcePoint"/>
                    </mxGeometry>
                </mxCell>
                <mxCell id="4_1HTsBBXWPBzoWa0NGx-17" style="edgeStyle=none;html=1;strokeColor=#000000;strokeWidth=1;fontColor=#000000;endArrow=none;endFill=0;exitX=0.5;exitY=1;exitDx=0;exitDy=0;" parent="4_1HTsBBXWPBzoWa0NGx-1" edge="1">
                    <mxGeometry relative="1" as="geometry">
                        <mxPoint x="430" y="120" as="targetPoint"/>
                        <mxPoint x="430" y="92" as="sourcePoint"/>
                    </mxGeometry>
                </mxCell>
                <mxCell id="4_1HTsBBXWPBzoWa0NGx-18" style="edgeStyle=none;html=1;strokeColor=#000000;strokeWidth=1;fontColor=#000000;endArrow=none;endFill=0;exitX=0.5;exitY=1;exitDx=0;exitDy=0;" parent="4_1HTsBBXWPBzoWa0NGx-1" edge="1">
                    <mxGeometry relative="1" as="geometry">
                        <mxPoint x="340" y="120" as="targetPoint"/>
                        <mxPoint x="340" y="92" as="sourcePoint"/>
                    </mxGeometry>
                </mxCell>
                <mxCell id="4_1HTsBBXWPBzoWa0NGx-19" style="edgeStyle=none;html=1;strokeColor=#000000;strokeWidth=1;fontColor=#000000;endArrow=none;endFill=0;exitX=0.5;exitY=1;exitDx=0;exitDy=0;" parent="4_1HTsBBXWPBzoWa0NGx-1" edge="1">
                    <mxGeometry relative="1" as="geometry">
                        <mxPoint x="250" y="120" as="targetPoint"/>
                        <mxPoint x="250" y="92" as="sourcePoint"/>
                    </mxGeometry>
                </mxCell>
                <mxCell id="4_1HTsBBXWPBzoWa0NGx-20" style="edgeStyle=none;html=1;strokeColor=#000000;strokeWidth=1;fontColor=#000000;endArrow=none;endFill=0;exitX=0.5;exitY=1;exitDx=0;exitDy=0;" parent="4_1HTsBBXWPBzoWa0NGx-1" edge="1">
                    <mxGeometry relative="1" as="geometry">
                        <mxPoint x="159.99999999999994" y="120" as="targetPoint"/>
                        <mxPoint x="159.99999999999994" y="92" as="sourcePoint"/>
                    </mxGeometry>
                </mxCell>
                <mxCell id="4_1HTsBBXWPBzoWa0NGx-21" value="&lt;b&gt;gNB&lt;/b&gt;" style="rounded=1;whiteSpace=wrap;html=1;strokeColor=#000000;strokeWidth=1;fontColor=#000000;fillColor=none;align=left;verticalAlign=top;" parent="4_1HTsBBXWPBzoWa0NGx-1" vertex="1">
                    <mxGeometry x="430" y="550" width="78" height="32" as="geometry"/>
                </mxCell>
                <mxCell id="4_1HTsBBXWPBzoWa0NGx-22" value="&lt;b&gt;UE&lt;/b&gt;" style="rounded=1;whiteSpace=wrap;html=1;strokeColor=#000000;strokeWidth=1;fontColor=#000000;fillColor=none;align=left;verticalAlign=top;" parent="4_1HTsBBXWPBzoWa0NGx-1" vertex="1">
                    <mxGeometry x="430" y="600" width="78" height="32" as="geometry"/>
                </mxCell>
                <mxCell id="4_1HTsBBXWPBzoWa0NGx-23" style="edgeStyle=none;html=1;strokeColor=#000000;strokeWidth=1;fontColor=#000000;endArrow=none;endFill=0;exitX=0.5;exitY=1;exitDx=0;exitDy=0;entryX=0.5;entryY=0;entryDx=0;entryDy=0;dashed=1;" parent="4_1HTsBBXWPBzoWa0NGx-1" source="4_1HTsBBXWPBzoWa0NGx-21" target="4_1HTsBBXWPBzoWa0NGx-22" edge="1">
                    <mxGeometry relative="1" as="geometry">
                        <mxPoint x="480" y="310" as="targetPoint"/>
                        <mxPoint x="480" y="282" as="sourcePoint"/>
                    </mxGeometry>
                </mxCell>
                <mxCell id="4_1HTsBBXWPBzoWa0NGx-24" style="edgeStyle=none;html=1;strokeColor=#001DBC;strokeWidth=1;fontColor=#000000;endArrow=none;endFill=0;fillColor=#0050ef;exitX=0.5;exitY=1;exitDx=0;exitDy=0;" parent="4_1HTsBBXWPBzoWa0NGx-1" source="4_1HTsBBXWPBzoWa0NGx-7" edge="1">
                    <mxGeometry relative="1" as="geometry">
                        <mxPoint x="250" y="180" as="targetPoint"/>
                        <mxPoint x="260" y="162" as="sourcePoint"/>
                    </mxGeometry>
                </mxCell>
                <mxCell id="4_1HTsBBXWPBzoWa0NGx-25" style="edgeStyle=none;html=1;strokeColor=#001DBC;strokeWidth=1;fontColor=#000000;endArrow=none;endFill=0;fillColor=#0050ef;exitX=0.5;exitY=1;exitDx=0;exitDy=0;" parent="4_1HTsBBXWPBzoWa0NGx-1" source="4_1HTsBBXWPBzoWa0NGx-8" edge="1">
                    <mxGeometry relative="1" as="geometry">
                        <mxPoint x="429" y="180" as="targetPoint"/>
                        <mxPoint x="428.71" y="152" as="sourcePoint"/>
                    </mxGeometry>
                </mxCell>
                <mxCell id="4_1HTsBBXWPBzoWa0NGx-26" value="" style="rounded=1;whiteSpace=wrap;html=1;strokeColor=#000000;strokeWidth=1;fontColor=#000000;fillColor=none;align=center;verticalAlign=top;dashed=1;" parent="4_1HTsBBXWPBzoWa0NGx-1" vertex="1">
                    <mxGeometry x="400" y="510" width="140" height="140" as="geometry"/>
                </mxCell>
                <mxCell id="4_1HTsBBXWPBzoWa0NGx-27" style="edgeStyle=none;html=1;strokeColor=#005700;strokeWidth=1;fontColor=#000000;endArrow=none;endFill=0;fillColor=#008a00;" parent="4_1HTsBBXWPBzoWa0NGx-1" edge="1">
                    <mxGeometry relative="1" as="geometry">
                        <mxPoint x="470" y="550" as="targetPoint"/>
                        <mxPoint x="470" y="530" as="sourcePoint"/>
                    </mxGeometry>
                </mxCell>
                <mxCell id="4_1HTsBBXWPBzoWa0NGx-28" value="" style="endArrow=none;html=1;fontColor=#000000;strokeWidth=4;strokeColor=#001DBC;fillColor=#0050ef;" parent="4_1HTsBBXWPBzoWa0NGx-1" edge="1">
                    <mxGeometry width="50" height="50" relative="1" as="geometry">
                        <mxPoint x="460" y="180" as="sourcePoint"/>
                        <mxPoint x="210" y="180" as="targetPoint"/>
                    </mxGeometry>
                </mxCell>
                <mxCell id="4_1HTsBBXWPBzoWa0NGx-29" value="" style="endArrow=none;html=1;fontColor=#000000;strokeWidth=4;strokeColor=#005700;fillColor=#008a00;" parent="4_1HTsBBXWPBzoWa0NGx-1" edge="1">
                    <mxGeometry width="50" height="50" relative="1" as="geometry">
                        <mxPoint x="530" y="530" as="sourcePoint"/>
                        <mxPoint x="408" y="530" as="targetPoint"/>
                    </mxGeometry>
                </mxCell>
                <mxCell id="4_1HTsBBXWPBzoWa0NGx-30" value="&lt;b&gt;&lt;font color=&quot;#000000&quot; style=&quot;font-size: 13px;&quot;&gt;Research and Education Network&lt;/font&gt;&lt;/b&gt;" style="ellipse;shape=cloud;whiteSpace=wrap;html=1;fillColor=#FFFFFF;strokeColor=#000000;" parent="4_1HTsBBXWPBzoWa0NGx-1" vertex="1">
                    <mxGeometry x="320" y="270" width="260" height="180" as="geometry"/>
                </mxCell>
                <mxCell id="4_1HTsBBXWPBzoWa0NGx-31" value="" style="endArrow=none;html=1;strokeColor=#000000;fontSize=13;fontColor=#000000;curved=1;strokeWidth=8;entryX=0.5;entryY=1;entryDx=0;entryDy=0;exitX=0.096;exitY=0.322;exitDx=0;exitDy=0;exitPerimeter=0;" parent="4_1HTsBBXWPBzoWa0NGx-1" source="4_1HTsBBXWPBzoWa0NGx-30" target="4_1HTsBBXWPBzoWa0NGx-3" edge="1">
                    <mxGeometry width="50" height="50" relative="1" as="geometry">
                        <mxPoint x="600" y="320.37037037037044" as="sourcePoint"/>
                        <mxPoint x="310" y="250" as="targetPoint"/>
                    </mxGeometry>
                </mxCell>
                <mxCell id="8ZhH25VKE9VvvtQ7Fmlg-0" value="" style="endArrow=none;html=1;strokeColor=#000000;fontSize=13;fontColor=#000000;curved=1;strokeWidth=8;entryX=0.55;entryY=0.95;entryDx=0;entryDy=0;entryPerimeter=0;exitX=0.457;exitY=-0.021;exitDx=0;exitDy=0;exitPerimeter=0;" parent="4_1HTsBBXWPBzoWa0NGx-1" source="4_1HTsBBXWPBzoWa0NGx-26" target="4_1HTsBBXWPBzoWa0NGx-30" edge="1">
                    <mxGeometry width="50" height="50" relative="1" as="geometry">
                        <mxPoint x="440" y="480" as="sourcePoint"/>
                        <mxPoint x="315" y="280" as="targetPoint"/>
                    </mxGeometry>
                </mxCell>
                <mxCell id="8ZhH25VKE9VvvtQ7Fmlg-1" value="" style="endArrow=none;dashed=1;html=1;dashPattern=1 3;strokeWidth=2;strokeColor=#FF0000;fontSize=13;fontColor=#000000;curved=1;exitX=0.55;exitY=0.95;exitDx=0;exitDy=0;exitPerimeter=0;entryX=0.102;entryY=0.328;entryDx=0;entryDy=0;entryPerimeter=0;" parent="4_1HTsBBXWPBzoWa0NGx-1" source="4_1HTsBBXWPBzoWa0NGx-30" target="4_1HTsBBXWPBzoWa0NGx-30" edge="1">
                    <mxGeometry width="50" height="50" relative="1" as="geometry">
                        <mxPoint x="360" y="310" as="sourcePoint"/>
                        <mxPoint x="340" y="180" as="targetPoint"/>
                        <Array as="points">
                            <mxPoint x="530" y="330"/>
                        </Array>
                    </mxGeometry>
                </mxCell>
                <mxCell id="ROw-aGaodW22zpUbOMbz-0" value="&lt;b&gt;gNB&lt;/b&gt;" style="rounded=1;whiteSpace=wrap;html=1;strokeColor=#000000;strokeWidth=1;fontColor=#000000;fillColor=none;align=left;verticalAlign=top;" vertex="1" parent="4_1HTsBBXWPBzoWa0NGx-1">
                    <mxGeometry x="178" y="539" width="78" height="32" as="geometry"/>
                </mxCell>
                <mxCell id="ROw-aGaodW22zpUbOMbz-1" value="&lt;b&gt;UE&lt;/b&gt;" style="rounded=1;whiteSpace=wrap;html=1;strokeColor=#000000;strokeWidth=1;fontColor=#000000;fillColor=none;align=left;verticalAlign=top;" vertex="1" parent="4_1HTsBBXWPBzoWa0NGx-1">
                    <mxGeometry x="178" y="589" width="78" height="32" as="geometry"/>
                </mxCell>
                <mxCell id="ROw-aGaodW22zpUbOMbz-2" style="edgeStyle=none;html=1;strokeColor=#000000;strokeWidth=1;fontColor=#000000;endArrow=none;endFill=0;exitX=0.5;exitY=1;exitDx=0;exitDy=0;entryX=0.5;entryY=0;entryDx=0;entryDy=0;dashed=1;" edge="1" parent="4_1HTsBBXWPBzoWa0NGx-1" source="ROw-aGaodW22zpUbOMbz-0" target="ROw-aGaodW22zpUbOMbz-1">
                    <mxGeometry relative="1" as="geometry">
                        <mxPoint x="228" y="299" as="targetPoint"/>
                        <mxPoint x="228" y="271" as="sourcePoint"/>
                    </mxGeometry>
                </mxCell>
                <mxCell id="ROw-aGaodW22zpUbOMbz-3" value="" style="rounded=1;whiteSpace=wrap;html=1;strokeColor=#000000;strokeWidth=1;fontColor=#000000;fillColor=none;align=center;verticalAlign=top;dashed=1;" vertex="1" parent="4_1HTsBBXWPBzoWa0NGx-1">
                    <mxGeometry x="148" y="499" width="140" height="140" as="geometry"/>
                </mxCell>
                <mxCell id="ROw-aGaodW22zpUbOMbz-4" style="edgeStyle=none;html=1;strokeColor=#005700;strokeWidth=1;fontColor=#000000;endArrow=none;endFill=0;fillColor=#008a00;" edge="1" parent="4_1HTsBBXWPBzoWa0NGx-1">
                    <mxGeometry relative="1" as="geometry">
                        <mxPoint x="218" y="539" as="targetPoint"/>
                        <mxPoint x="218" y="519" as="sourcePoint"/>
                    </mxGeometry>
                </mxCell>
                <mxCell id="ROw-aGaodW22zpUbOMbz-5" value="" style="endArrow=none;html=1;fontColor=#000000;strokeWidth=4;strokeColor=#005700;fillColor=#008a00;" edge="1" parent="4_1HTsBBXWPBzoWa0NGx-1">
                    <mxGeometry width="50" height="50" relative="1" as="geometry">
                        <mxPoint x="278" y="519" as="sourcePoint"/>
                        <mxPoint x="156" y="519" as="targetPoint"/>
                    </mxGeometry>
                </mxCell>
                <mxCell id="ROw-aGaodW22zpUbOMbz-6" value="" style="endArrow=none;html=1;strokeColor=#000000;fontSize=13;fontColor=#000000;curved=1;strokeWidth=8;exitX=0.457;exitY=-0.021;exitDx=0;exitDy=0;exitPerimeter=0;entryX=0.13;entryY=0.77;entryDx=0;entryDy=0;entryPerimeter=0;" edge="1" parent="4_1HTsBBXWPBzoWa0NGx-1" source="ROw-aGaodW22zpUbOMbz-3" target="4_1HTsBBXWPBzoWa0NGx-30">
                    <mxGeometry width="50" height="50" relative="1" as="geometry">
                        <mxPoint x="188" y="469" as="sourcePoint"/>
                        <mxPoint x="211" y="430" as="targetPoint"/>
                    </mxGeometry>
                </mxCell>
                <mxCell id="ROw-aGaodW22zpUbOMbz-7" value="" style="endArrow=none;dashed=1;html=1;dashPattern=1 3;strokeWidth=2;strokeColor=#FF0000;fontSize=13;fontColor=#000000;curved=1;exitX=0.13;exitY=0.77;exitDx=0;exitDy=0;exitPerimeter=0;entryX=0.102;entryY=0.328;entryDx=0;entryDy=0;entryPerimeter=0;" edge="1" parent="4_1HTsBBXWPBzoWa0NGx-1" source="4_1HTsBBXWPBzoWa0NGx-30">
                    <mxGeometry width="50" height="50" relative="1" as="geometry">
                        <mxPoint x="473" y="451" as="sourcePoint"/>
                        <mxPoint x="356.52" y="339.03999999999996" as="targetPoint"/>
                        <Array as="points">
                            <mxPoint x="480" y="380"/>
                        </Array>
                    </mxGeometry>
                </mxCell>
            </root>
        </mxGraphModel>
    </diagram>
</mxfile>